<svg width="48" height="48" viewBox="0 0 48 48" fill="none" xmlns="http://www.w3.org/2000/svg">
<path d="M15 8.34201L24 13.4355L33 8.34201M15 38.8635V28.6962L6 23.6028M42 23.6028L33 28.6962V38.8635M6.54 13.7293L24 23.6224L41.46 13.7293M24 43.3497V23.6028M42 31.4388V15.7667C41.9993 15.0796 41.8141 14.4048 41.4631 13.81C41.112 13.2151 40.6075 12.7211 40 12.3776L26 4.54152C25.3919 4.19764 24.7021 4.0166 24 4.0166C23.2979 4.0166 22.6081 4.19764 22 4.54152L8 12.3776C7.39253 12.7211 6.88796 13.2151 6.53692 13.81C6.18589 14.4048 6.00072 15.0796 6 15.7667V31.4388C6.00072 32.1259 6.18589 32.8007 6.53692 33.3956C6.88796 33.9904 7.39253 34.4844 8 34.8279L22 42.664C22.6081 43.0079 23.2979 43.1889 24 43.1889C24.7021 43.1889 25.3919 43.0079 26 42.664L40 34.8279C40.6075 34.4844 41.112 33.9904 41.4631 33.3956C41.8141 32.8007 41.9993 32.1259 42 31.4388Z" stroke="white" stroke-opacity="0.6" stroke-width="4" stroke-linecap="round" stroke-linejoin="round"/>
</svg>
