<svg width="36" height="48" viewBox="0 0 36 48" fill="none" xmlns="http://www.w3.org/2000/svg">
<path fill-rule="evenodd" clip-rule="evenodd" d="M30.06 47.6103H5.93999C4.47798 47.6103 3.07586 47.0414 2.04206 46.0288C1.00827 45.0162 0.42749 43.6428 0.42749 42.2108V5.62611C0.42749 4.19406 1.00827 2.82066 2.04206 1.80805C3.07586 0.795441 4.47798 0.226562 5.93999 0.226562H30.06C31.522 0.226562 32.9241 0.795441 33.9579 1.80805C34.9917 2.82066 35.5725 4.19406 35.5725 5.62611V23.9184V42.2108C35.5725 43.6428 34.9917 45.0162 33.9579 46.0288C32.9241 47.0414 31.522 47.6103 30.06 47.6103ZM32.1975 25.5714V42.2108C32.1702 42.7574 31.9363 43.2746 31.5412 43.6616C31.1461 44.0486 30.6181 44.2778 30.06 44.3045H5.93999C5.3819 44.2778 4.85392 44.0486 4.45882 43.6616C4.06372 43.2746 3.82976 42.7574 3.80249 42.2108V25.5714H32.1975ZM32.1975 22.2655H3.80249V5.7363C3.80177 5.17039 4.02332 4.6259 4.42124 4.21561C4.81916 3.80533 5.36296 3.5607 5.93999 3.53241L30.06 3.42221C30.637 3.45051 31.1808 3.69513 31.5787 4.10542C31.9767 4.5157 32.1982 5.0602 32.1975 5.62611V22.2655ZM25.2442 32.6246C25.5606 32.9345 25.9899 33.1087 26.4374 33.1087C26.8848 33.1083 27.3138 32.9339 27.6299 32.6238C27.7877 32.4667 27.9103 32.279 27.9899 32.0729C28.0772 31.8783 28.1232 31.6683 28.1249 31.4558C28.1256 31.2359 28.0796 31.0182 27.9899 30.8166C27.9105 30.6168 27.7877 30.4363 27.6299 30.2877C27.308 29.9885 26.8812 29.8217 26.4374 29.8217C25.9937 29.8217 25.5668 29.9885 25.2449 30.2877C25.0871 30.4363 24.9643 30.6168 24.8849 30.8166C24.7952 31.0182 24.7492 31.2359 24.7499 31.4558C24.7499 31.8941 24.9277 32.3146 25.2442 32.6246ZM25.245 39.7865C25.5611 40.0966 25.9901 40.271 26.4375 40.2713C26.8849 40.271 27.3138 40.0966 27.63 39.7865C27.7832 39.6258 27.9052 39.4391 27.99 39.2355C28.0798 39.0418 28.1259 38.8312 28.125 38.6184C28.1273 38.4011 28.0846 38.1855 27.9996 37.9847C27.9145 37.784 27.7888 37.6022 27.63 37.4504C27.3906 37.2225 27.0899 37.0663 26.7631 36.9999C26.4364 36.9336 26.097 36.9599 25.785 37.0757C25.5831 37.1673 25.4001 37.2942 25.245 37.4504C25.0862 37.6022 24.9604 37.784 24.8754 37.9847C24.7903 38.1855 24.7476 38.4011 24.75 38.6184C24.749 38.8312 24.7951 39.0418 24.885 39.2355C24.9697 39.4391 25.0917 39.6258 25.245 39.7865ZM12.0367 39.7872C12.3531 40.0972 12.7824 40.2713 13.2299 40.2713C13.6757 40.2656 14.1015 40.0897 14.4167 39.7809C14.7319 39.4721 14.9116 39.055 14.9174 38.6184V36.679H16.8751C17.3226 36.679 17.7518 36.5049 18.0683 36.1949C18.3848 35.8849 18.5626 35.4645 18.5626 35.0261C18.5626 34.5877 18.3848 34.1673 18.0683 33.8573C17.7518 33.5473 17.3226 33.3732 16.8751 33.3732H14.9174V31.4558C14.9174 31.0174 14.7396 30.5969 14.4232 30.287C14.1067 29.977 13.6775 29.8028 13.2299 29.8028C12.7824 29.8028 12.3531 29.977 12.0367 30.287C11.7202 30.5969 11.5424 31.0174 11.5424 31.4558V33.3732H9.56256C9.11501 33.3732 8.68578 33.5473 8.36932 33.8573C8.05285 34.1673 7.87506 34.5877 7.87506 35.0261C7.87506 35.4645 8.05285 35.8849 8.36932 36.1949C8.68578 36.5049 9.11501 36.679 9.56256 36.679H11.5424V38.6184C11.5424 39.0568 11.7202 39.4772 12.0367 39.7872Z" fill="white" fill-opacity="0.6"/>
</svg>
