<svg width="77" height="79" viewBox="0 0 77 79" fill="none" xmlns="http://www.w3.org/2000/svg">
<mask id="path-1-outside-1_173_175" maskUnits="userSpaceOnUse" x="0" y="0" width="77" height="79" fill="black">
<rect fill="white" width="77" height="79"/>
<path d="M1.5 59.7C1.5 58.9 2.03333 58.5 3.1 58.5C4.16667 58.5 7.46667 59.2333 13 60.7C14.2667 49.7667 17.8333 37.9 23.7 25.1C25.7667 20.4333 28.2333 18.1 31.1 18.1C31.6333 18.1 32.1333 18.6667 32.6 19.8C33.1333 20.9333 33.4 22.3333 33.4 24C33.4 26 32.3333 31.5 30.2 40.5C28.1333 49.5 26.7667 57.3333 26.1 64C30.5 65 34.3667 65.5 37.7 65.5C41.1 65.5 44.2 64.6333 47 62.9C49.8 61.1 52.2 58.8 54.2 56C58.3333 50.0667 60.4 42.9333 60.4 34.6C60.3333 19.2 54.2 11.5 42 11.5C37.6667 11.5667 30 13.5 19 17.3C16.8667 18.0333 15 18.4 13.4 18.4C11.8 18.4 11 17.9333 11 17C11 15.7333 11.9333 14.2333 13.8 12.5C15.6667 10.7667 18.0667 9.1 21 7.49999C28.2 3.63333 35.2 1.7 42 1.7C51.3333 1.7 59 4.2 65 9.2C72.0667 15.1333 75.5667 24.1333 75.5 36.2C75.5 41.3333 74.7 46.4 73.1 51.4C71.5 56.4 69.0667 60.8667 65.8 64.8C62.5333 68.6667 58.4 71.8 53.4 74.2C48.4 76.6 42.5 77.8 35.7 77.8C32.9667 77.8 29.5 77.2 25.3 76C24.8333 77.2667 23.6667 77.9 21.8 77.9C18.3333 77.9 15.9667 77.3333 14.7 76.2C13.5 75 12.8 73.0667 12.6 70.4C9.4 68.6 6.73333 66.7333 4.6 64.8C2.53333 62.8667 1.5 61.1667 1.5 59.7Z"/>
</mask>
<path d="M1.5 59.7C1.5 58.9 2.03333 58.5 3.1 58.5C4.16667 58.5 7.46667 59.2333 13 60.7C14.2667 49.7667 17.8333 37.9 23.7 25.1C25.7667 20.4333 28.2333 18.1 31.1 18.1C31.6333 18.1 32.1333 18.6667 32.6 19.8C33.1333 20.9333 33.4 22.3333 33.4 24C33.4 26 32.3333 31.5 30.2 40.5C28.1333 49.5 26.7667 57.3333 26.1 64C30.5 65 34.3667 65.5 37.7 65.5C41.1 65.5 44.2 64.6333 47 62.9C49.8 61.1 52.2 58.8 54.2 56C58.3333 50.0667 60.4 42.9333 60.4 34.6C60.3333 19.2 54.2 11.5 42 11.5C37.6667 11.5667 30 13.5 19 17.3C16.8667 18.0333 15 18.4 13.4 18.4C11.8 18.4 11 17.9333 11 17C11 15.7333 11.9333 14.2333 13.8 12.5C15.6667 10.7667 18.0667 9.1 21 7.49999C28.2 3.63333 35.2 1.7 42 1.7C51.3333 1.7 59 4.2 65 9.2C72.0667 15.1333 75.5667 24.1333 75.5 36.2C75.5 41.3333 74.7 46.4 73.1 51.4C71.5 56.4 69.0667 60.8667 65.8 64.8C62.5333 68.6667 58.4 71.8 53.4 74.2C48.4 76.6 42.5 77.8 35.7 77.8C32.9667 77.8 29.5 77.2 25.3 76C24.8333 77.2667 23.6667 77.9 21.8 77.9C18.3333 77.9 15.9667 77.3333 14.7 76.2C13.5 75 12.8 73.0667 12.6 70.4C9.4 68.6 6.73333 66.7333 4.6 64.8C2.53333 62.8667 1.5 61.1667 1.5 59.7Z" fill="url(#paint0_linear_173_175)"/>
<path d="M13 60.7L12.7438 61.6666L13.8604 61.9626L13.9934 60.8151L13 60.7ZM23.7 25.1L24.6091 25.5167L24.6144 25.5049L23.7 25.1ZM32.6 19.8L31.6753 20.1807L31.6847 20.2035L31.6952 20.2258L32.6 19.8ZM30.2 40.5L29.2269 40.2693L29.2254 40.2762L30.2 40.5ZM26.1 64L25.105 63.9005L25.0171 64.7794L25.8784 64.9751L26.1 64ZM47 62.9L47.5264 63.7503L47.5336 63.7458L47.5408 63.7412L47 62.9ZM54.2 56L55.0138 56.5813L55.0205 56.5716L54.2 56ZM60.4 34.6L61.4 34.6L61.4 34.5957L60.4 34.6ZM42 11.5V10.5H41.9923L41.9846 10.5001L42 11.5ZM19 17.3L19.3251 18.2457L19.3265 18.2452L19 17.3ZM13.8 12.5L13.1196 11.7672L13.1195 11.7672L13.8 12.5ZM21 7.49999L20.5269 6.61898L20.5211 6.6221L21 7.49999ZM65 9.2L65.643 8.43414L65.6402 8.43178L65 9.2ZM75.5 36.2L74.5 36.1945V36.2H75.5ZM73.1 51.4L72.1476 51.0952L72.1476 51.0952L73.1 51.4ZM65.8 64.8L66.5639 65.4454L66.5693 65.4389L65.8 64.8ZM53.4 74.2L53.8327 75.1015L53.8327 75.1015L53.4 74.2ZM25.3 76L25.5747 75.0385L24.6825 74.7835L24.3617 75.6543L25.3 76ZM14.7 76.2L13.9929 76.9071L14.0125 76.9267L14.0332 76.9452L14.7 76.2ZM12.6 70.4L13.5972 70.3252L13.5571 69.791L13.0903 69.5284L12.6 70.4ZM4.6 64.8L3.91684 65.5303L3.92262 65.5357L3.92848 65.541L4.6 64.8ZM2.5 59.7C2.5 59.61 2.51497 59.5785 2.51381 59.5811C2.51326 59.5824 2.51071 59.5874 2.50587 59.5934C2.50108 59.5994 2.49799 59.6015 2.5 59.6C2.51727 59.587 2.66282 59.5 3.1 59.5V57.5C2.47051 57.5 1.81606 57.613 1.3 58C0.729836 58.4276 0.5 59.056 0.5 59.7H2.5ZM3.1 59.5C3.50377 59.5 4.48522 59.6544 6.15807 60.0262C7.78901 60.3886 9.98258 60.9347 12.7438 61.6666L13.2562 59.7334C10.4841 58.9986 8.26099 58.4447 6.59193 58.0738C4.96478 57.7122 3.7629 57.5 3.1 57.5V59.5ZM13.9934 60.8151C15.2451 50.0105 18.7746 38.2465 24.6091 25.5166L22.7909 24.6833C16.8921 37.5535 13.2882 49.5228 12.0066 60.5849L13.9934 60.8151ZM24.6144 25.5049C26.6527 20.9023 28.8751 19.1 31.1 19.1V17.1C27.5916 17.1 24.8807 19.9644 22.7857 24.6951L24.6144 25.5049ZM31.1 19.1C30.976 19.1 30.9834 19.026 31.1252 19.1866C31.2704 19.3512 31.4614 19.6612 31.6753 20.1807L33.5247 19.4192C33.272 18.8055 32.9797 18.2655 32.6248 17.8634C32.2666 17.4574 31.7573 17.1 31.1 17.1V19.1ZM31.6952 20.2258C32.1487 21.1895 32.4 22.4342 32.4 24H34.4C34.4 22.2325 34.118 20.6771 33.5048 19.3742L31.6952 20.2258ZM32.4 24C32.4 24.8896 32.1538 26.6734 31.6183 29.4346C31.0887 32.1653 30.2922 35.7753 29.227 40.2694L31.173 40.7306C32.2411 36.2247 33.0446 32.5847 33.5817 29.8154C34.1129 27.0766 34.4 25.1104 34.4 24H32.4ZM29.2254 40.2762C27.1525 49.3031 25.777 57.1797 25.105 63.9005L27.095 64.0995C27.7563 57.4869 29.1141 49.6969 31.1746 40.7238L29.2254 40.2762ZM25.8784 64.9751C30.3274 65.9863 34.2712 66.5 37.7 66.5V64.5C34.4622 64.5 30.6726 64.0137 26.3216 63.0249L25.8784 64.9751ZM37.7 66.5C41.2796 66.5 44.5629 65.5848 47.5264 63.7503L46.4736 62.0497C43.8371 63.6819 40.9204 64.5 37.7 64.5V66.5ZM47.5408 63.7412C50.451 61.8703 52.9426 59.4809 55.0137 56.5812L53.3863 55.4188C51.4574 58.1191 49.149 60.3297 46.4592 62.0588L47.5408 63.7412ZM55.0205 56.5716C59.2878 50.446 61.4 43.1056 61.4 34.6H59.4C59.4 42.7611 57.3788 49.6874 53.3795 55.4284L55.0205 56.5716ZM61.4 34.5957C61.3662 26.7902 59.7986 20.7527 56.5322 16.652C53.2309 12.5074 48.3243 10.5 42 10.5V12.5C47.8757 12.5 52.1358 14.3426 54.9678 17.898C57.8348 21.4973 59.3671 27.0098 59.4 34.6043L61.4 34.5957ZM41.9846 10.5001C37.4693 10.5696 29.6593 12.5597 18.6735 16.3548L19.3265 18.2452C30.3407 14.4403 37.864 12.5637 42.0154 12.4999L41.9846 10.5001ZM18.6749 16.3543C16.6068 17.0652 14.8542 17.4 13.4 17.4V19.4C15.1458 19.4 17.1265 19.0014 19.3251 18.2457L18.6749 16.3543ZM13.4 17.4C12.6645 17.4 12.2766 17.2869 12.1039 17.1862C12.0326 17.1446 12.0189 17.1175 12.0182 17.1164C12.0174 17.1148 12 17.087 12 17H10C10 17.8189 10.386 18.4995 11.0961 18.9138C11.7234 19.2797 12.5355 19.4 13.4 19.4V17.4ZM12 17C12 16.1869 12.6373 14.9443 14.4805 13.2328L13.1195 11.7672C11.2293 13.5224 10 15.2797 10 17H12ZM14.4805 13.2328C16.2707 11.5704 18.5972 9.94968 21.4789 8.37789L20.5211 6.6221C17.5361 8.25031 15.0626 9.96293 13.1196 11.7672L14.4805 13.2328ZM21.4731 8.38099C28.5569 4.57676 35.3954 2.7 42 2.7V0.699998C35.0046 0.699998 27.8431 2.6899 20.5269 6.619L21.4731 8.38099ZM42 2.7C51.147 2.7 58.573 5.14587 64.3598 9.96822L65.6402 8.43178C59.427 3.25413 51.5197 0.699998 42 0.699998V2.7ZM64.357 9.96584C71.1301 15.6527 74.5656 24.3271 74.5 36.1945L76.5 36.2055C76.5678 23.9396 73.0033 14.614 65.643 8.43415L64.357 9.96584ZM74.5 36.2C74.5 41.2275 73.7168 46.1915 72.1476 51.0952L74.0524 51.7048C75.6832 46.6085 76.5 41.4391 76.5 36.2H74.5ZM72.1476 51.0952C70.5856 55.9765 68.2133 60.329 65.0307 64.1611L66.5693 65.4389C69.9201 61.4043 72.4144 56.8235 74.0524 51.7048L72.1476 51.0952ZM65.0361 64.1546C61.8689 67.9036 57.8523 70.9536 52.9673 73.2985L53.8327 75.1015C58.9477 72.6464 63.1977 69.4298 66.5639 65.4454L65.0361 64.1546ZM52.9673 73.2985C48.1294 75.6207 42.3834 76.8 35.7 76.8V78.8C42.6166 78.8 48.6706 77.5793 53.8327 75.1015L52.9673 73.2985ZM35.7 76.8C33.098 76.8 29.7319 76.2262 25.5747 75.0385L25.0253 76.9615C29.2681 78.1738 32.8354 78.8 35.7 78.8V76.8ZM24.3617 75.6543C24.2107 76.064 23.9639 76.3474 23.5979 76.5461C23.2084 76.7576 22.6306 76.9 21.8 76.9V78.9C22.8361 78.9 23.7749 78.7258 24.5521 78.3039C25.3527 77.8692 25.9226 77.2026 26.2383 76.3457L24.3617 75.6543ZM21.8 76.9C18.3629 76.9 16.3357 76.3217 15.3668 75.4548L14.0332 76.9452C15.5976 78.345 18.3037 78.9 21.8 78.9V76.9ZM15.4071 75.4929C14.4502 74.536 13.7891 72.8835 13.5972 70.3252L11.6028 70.4748C11.8109 73.2499 12.5498 75.464 13.9929 76.9071L15.4071 75.4929ZM13.0903 69.5284C9.93851 67.7556 7.3368 65.9307 5.27152 64.059L3.92848 65.541C6.12987 67.536 8.86149 69.4444 12.1097 71.2716L13.0903 69.5284ZM5.28316 64.0697C3.25101 62.1687 2.5 60.723 2.5 59.7H0.5C0.5 61.6104 1.81566 63.5646 3.91684 65.5303L5.28316 64.0697Z" fill="black" mask="url(#path-1-outside-1_173_175)"/>
<defs>
<linearGradient id="paint0_linear_173_175" x1="38.5" y1="-26" x2="38.5" y2="109" gradientUnits="userSpaceOnUse">
<stop stop-color="#FD6F00"/>
<stop offset="1" stop-color="#974200"/>
</linearGradient>
</defs>
</svg>
