<svg width="86" height="86" viewBox="0 0 86 86" fill="none" xmlns="http://www.w3.org/2000/svg">
<path d="M65.9647 59.2124C76.4661 48.7177 78.2129 33.4393 69.8615 25.0946C61.5101 16.7499 46.2317 18.4968 35.7303 28.9915C25.2289 39.4861 28.2658 59.5483 31.8334 63.1093C34.7158 65.9916 55.4633 69.7071 65.9647 59.2124Z" fill="white" fill-opacity="0.5"/>
<path d="M22.8706 44.0481C16.7767 37.9609 7.90798 36.9464 3.06376 41.7839C-1.78046 46.6281 -0.765928 55.4901 5.32798 61.5773C11.4219 67.6712 23.0655 65.9042 25.1349 63.8415C26.8078 62.1686 28.9713 50.1353 22.8706 44.0481Z" fill="white" fill-opacity="0.25"/>
<path d="M83.1916 57.5664C82.8019 57.5664 82.6071 57.3312 82.6071 56.8542C82.6071 56.4981 82.8422 55.7187 83.3058 54.5295C83.9844 52.7893 84.3271 51.5397 84.3271 50.7804C84.3271 50.3236 84.1927 49.9406 83.9239 49.6382C83.6552 49.3359 83.3192 49.1814 82.9161 49.1814C82.3249 49.1814 81.6463 49.4568 80.8803 50.0145C80.1144 50.5722 79.0864 51.5732 77.7897 53.0245C77.9778 52.0839 78.381 50.7939 78.9856 49.1545L76.0899 49.7121C75.4314 51.1365 74.9544 52.4198 74.6588 53.562C74.511 54.1197 74.4035 54.6975 74.3296 55.282C73.4225 56.1621 72.8313 56.6929 72.576 56.8878C72.3139 57.0826 72.0385 57.1767 71.7563 57.1767C71.4942 57.1767 71.286 57.0759 71.1314 56.8811C70.9769 56.6862 70.903 56.4175 70.903 56.0882C70.903 55.7322 70.9702 55.3223 71.1046 54.8587C71.2389 54.3951 71.5346 53.5217 71.9982 52.2384L73.1 49.2015L72.0183 49.2486C71.0374 51.1164 69.8885 52.1242 68.5716 52.2653C68.9277 51.3381 69.1091 50.6259 69.1091 50.1287C69.1091 49.4971 68.8 49.1814 68.1819 49.1814C67.4496 49.1814 66.8785 49.524 66.4686 50.2161C66.0521 50.9081 65.8438 51.5598 65.8438 52.1712C65.8438 52.7826 66.1864 53.2126 66.865 53.515C66.4216 54.1667 65.9244 54.7781 65.3869 55.3559C64.7486 55.9875 64.2514 56.4712 63.8886 56.787C63.5191 57.1162 63.1764 57.2775 62.8674 57.2775C62.3836 57.2775 62.1417 56.9348 62.1417 56.2562C62.1417 55.5776 62.4105 54.4086 62.948 52.6617L63.9961 49.1814H63.331L60.9055 50.5251C60.5091 49.6181 59.8171 49.1612 58.8294 49.1612C58.0433 49.1612 57.143 49.4972 56.1217 50.1623C55.1005 50.8275 54.2606 51.6942 53.6089 52.7759C53.105 53.609 52.796 54.4825 52.6817 55.3828C51.768 56.2965 51.0827 56.8878 50.6258 57.1632C50.1488 57.4454 49.6516 57.5865 49.1275 57.5865C47.7905 57.5865 46.9641 56.8139 46.6483 55.2686C50.1353 54.2473 51.8755 52.917 51.8755 51.2776C51.8755 50.6595 51.6538 50.1623 51.2103 49.7793C50.7669 49.3964 50.1756 49.2082 49.4433 49.2082C48.0256 49.2082 46.7357 49.8868 45.5733 51.244C44.5185 52.4736 43.9474 53.8375 43.8466 55.3357C42.8858 56.2831 42.1602 56.9079 41.6899 57.2103C41.2061 57.5193 40.7492 57.6739 40.326 57.6739C39.9027 57.6739 39.5667 57.4723 39.3181 57.0692C39.0628 56.6661 38.9352 56.1218 38.9352 55.4298C38.9352 55.1207 38.9688 54.5564 39.0292 53.73C40.6149 52.01 41.7772 50.3975 42.523 48.8857C43.2688 47.374 43.6383 45.8086 43.6383 44.1961C43.6383 43.625 43.5644 43.1748 43.4166 42.8389C43.2688 42.5029 43.0806 42.335 42.8522 42.335C42.8052 42.335 42.7313 42.3484 42.6372 42.382L39.6205 43.4973C38.5925 45.4592 37.7124 47.6025 36.9935 49.9339C36.2746 52.2586 35.9117 54.254 35.9117 55.9136C35.9117 57.0222 36.1671 57.9023 36.6911 58.5607C37.2085 59.2192 37.8938 59.5484 38.7403 59.5484C39.4794 59.5484 40.2521 59.3132 41.065 58.8429C41.878 58.3726 42.8186 57.6403 43.9003 56.6526C44.9821 55.665 43.9003 56.6392 43.9003 56.6392C44.028 57.385 44.3371 58.0098 44.8208 58.5204C45.486 59.2057 46.3527 59.5551 47.4277 59.5551C48.3952 59.5551 49.2753 59.32 50.0749 58.8496C50.8475 58.3995 51.7142 57.694 52.6817 56.7601C52.7624 57.4589 52.9908 58.0636 53.3738 58.5809C53.8642 59.2326 54.4555 59.5618 55.1475 59.5618C55.8396 59.5618 56.5517 59.2931 57.2236 58.7556C57.8955 58.2181 58.6211 57.3782 59.4139 56.2495C59.34 58.46 59.9313 59.5618 61.181 59.5618C61.6781 59.5618 62.2022 59.3804 62.7464 59.0176C63.2906 58.6548 64.1977 57.8687 65.4675 56.6661C66.5694 55.5776 67.3757 54.5564 67.893 53.6023C68.5917 53.4814 69.23 53.2731 69.8146 52.9707C68.6186 54.8453 68.0206 56.3436 68.0206 57.4589C68.0206 58.0636 68.1886 58.5675 68.5178 58.9706C68.8471 59.3737 69.2569 59.582 69.7407 59.582C70.7955 59.582 72.2938 58.6347 74.2288 56.7601C74.2288 56.9079 74.2153 57.049 74.2153 57.1968C74.2153 57.7209 74.2624 58.5137 74.343 59.582L76.97 58.9639C76.97 58.2517 76.9835 57.6873 77.0036 57.264C77.0439 56.6997 77.1246 56.0815 77.2388 55.4097C77.3127 55.0132 77.4941 54.637 77.783 54.2809L78.4482 53.5082C78.69 53.2261 78.9252 52.9707 79.1335 52.749C79.3821 52.487 79.6038 52.2653 79.7986 52.0839C80.0203 51.889 80.2152 51.7278 80.3832 51.6203C80.5646 51.5128 80.7124 51.4523 80.8199 51.4523C81.0147 51.4523 81.1155 51.58 81.1155 51.8353C81.1155 52.0906 80.9274 52.6818 80.5578 53.6157C79.8591 55.3559 79.5097 56.6526 79.5097 57.4992C79.5097 58.124 79.671 58.6212 80.0002 58.9975C80.3227 59.367 80.7527 59.5551 81.2835 59.5551C82.5869 59.5551 84.1591 58.5876 85.9866 56.6593V55.2954C84.6899 56.8206 83.756 57.5865 83.1782 57.5865L83.1916 57.5664ZM39.345 51.9965C39.8825 49.3695 40.4335 47.3337 40.9911 45.8757C41.5488 44.4178 41.9788 43.6854 42.2677 43.6854C42.4021 43.6854 42.5163 43.7728 42.6036 43.9542C42.691 44.1289 42.7313 44.3707 42.7313 44.6597C42.7313 45.6607 42.4222 46.85 41.7906 48.2407C41.1658 49.6248 40.3461 50.8812 39.345 51.9965ZM47.2664 51.3381C47.7435 50.5386 48.2407 50.1421 48.7647 50.1421C49.3157 50.1421 49.5978 50.5251 49.5978 51.2843C49.5978 52.8229 48.5833 53.8711 46.5542 54.4421C46.5542 53.1656 46.7894 52.1309 47.2664 51.3381ZM59.0108 55.2686C58.3121 56.619 57.5596 57.2909 56.7735 57.2909C56.451 57.2909 56.1822 57.1565 55.9739 56.8945C55.7656 56.6325 55.6581 56.2831 55.6581 55.8531C55.6581 54.7243 56.0142 53.4814 56.7197 52.1376C57.4252 50.7939 58.1777 50.122 58.9705 50.122C59.2997 50.122 59.5685 50.2429 59.7633 50.4982C59.9581 50.7468 60.0589 51.0962 60.0589 51.5396C60.0589 52.6818 59.7096 53.9248 59.0108 55.2753V55.2686Z" fill="white" fill-opacity="0.5"/>
<path d="M50.6997 43.5913C50.8005 43.7324 50.8475 43.9138 50.8475 44.1288C50.8475 44.3438 50.787 44.5386 50.6661 44.72C50.5452 44.9014 50.3705 45.0493 50.1353 45.15C49.9069 45.2508 49.6449 45.3046 49.356 45.3046C48.8722 45.3046 48.5094 45.2038 48.2541 45.0022C47.9988 44.8007 47.8375 44.505 47.7703 44.1086L48.3952 44.0079C48.4288 44.2564 48.5295 44.4513 48.6841 44.5789C48.8453 44.7133 49.067 44.7805 49.356 44.7805C49.6449 44.7805 49.8599 44.72 50.0009 44.6058C50.142 44.4916 50.2092 44.3505 50.2092 44.1893C50.2092 44.0482 50.1488 43.9339 50.0211 43.8533C49.9338 43.7996 49.7188 43.7257 49.3761 43.6383C48.9125 43.5241 48.5967 43.4233 48.4153 43.336C48.2339 43.2486 48.0995 43.1344 48.0122 42.9799C47.9249 42.8254 47.8711 42.6641 47.8711 42.4827C47.8711 42.3147 47.9114 42.1669 47.9853 42.0258C48.0592 41.8847 48.1667 41.7705 48.2944 41.6764C48.3952 41.6025 48.5228 41.5421 48.6908 41.495C48.8588 41.448 49.0402 41.4211 49.235 41.4211C49.5239 41.4211 49.7792 41.4614 50.0009 41.5488C50.2227 41.6294 50.3839 41.7436 50.4914 41.8914C50.5989 42.0325 50.6661 42.2274 50.7064 42.4693L50.0883 42.5499C50.0614 42.3618 49.9808 42.2072 49.8464 42.0997C49.712 41.9922 49.5239 41.9385 49.2753 41.9385C48.9864 41.9385 48.7781 41.9855 48.6572 42.0796C48.5363 42.1736 48.4691 42.2879 48.4691 42.4155C48.4691 42.4961 48.496 42.57 48.543 42.6372C48.5967 42.7044 48.6774 42.7582 48.7849 42.8052C48.8453 42.8254 49.0335 42.8791 49.3425 42.9664C49.786 43.0874 50.095 43.1814 50.2764 43.2554C50.4511 43.3293 50.5922 43.4435 50.693 43.5846L50.6997 43.5913ZM53.703 44.5588C53.535 44.7133 53.3335 44.7872 53.0849 44.7872C52.7758 44.7872 52.5272 44.673 52.3391 44.4513C52.151 44.2296 52.0502 43.86 52.0502 43.3629C52.0502 42.8657 52.151 42.5096 52.3458 42.2879C52.5406 42.0661 52.8027 41.9452 53.1184 41.9452C53.3267 41.9452 53.5081 42.0057 53.656 42.1333C53.8038 42.261 53.9045 42.4491 53.965 42.6977L54.5764 42.6036C54.5025 42.2274 54.3413 41.9385 54.086 41.7369C53.8306 41.5354 53.5014 41.4346 53.0983 41.4346C52.7758 41.4346 52.4869 41.5085 52.2114 41.663C51.9427 41.8108 51.7344 42.0393 51.6067 42.3416C51.4724 42.6439 51.4052 42.9933 51.4052 43.3964C51.4052 44.0146 51.5597 44.4916 51.8688 44.8208C52.1778 45.15 52.5877 45.318 53.0916 45.318C53.4947 45.318 53.8374 45.1971 54.1195 44.9552C54.395 44.7133 54.5697 44.3774 54.6369 43.9541L54.0188 43.8735C53.9717 44.1893 53.871 44.4177 53.703 44.5722V44.5588ZM55.1744 45.2172H55.8059V41.5085H55.1744V45.2172ZM55.1744 40.8164H55.8059V40.0908H55.1744V40.8164ZM59.6961 41.5018H58.8831L57.3916 43.0135V40.0908H56.76V45.2105H57.3916V43.7391L57.835 43.3158L59.0645 45.2105H59.8439L58.2784 42.8791L59.6961 41.5018ZM60.3411 40.8164H60.9727V40.0908H60.3411V40.8164ZM60.3411 45.2172H60.9727V41.5085H60.3411V45.2172ZM63.3041 44.6529C63.1899 44.6663 63.0958 44.6797 63.0286 44.6797C62.9345 44.6797 62.8606 44.6663 62.8136 44.6327C62.7666 44.5991 62.7263 44.5588 62.7061 44.5118C62.686 44.458 62.6725 44.3438 62.6725 44.1691V41.9989H63.3041V41.5085H62.6725V40.2118L62.0477 40.588V41.5085H61.5841V41.9989H62.0477V44.1355C62.0477 44.5118 62.0745 44.7604 62.1216 44.8746C62.1753 44.9955 62.2627 45.0896 62.3836 45.1568C62.5113 45.2307 62.686 45.2643 62.9144 45.2643C63.0555 45.2643 63.21 45.2441 63.3914 45.2105L63.2974 44.6529H63.3041Z" fill="white" fill-opacity="0.9"/>
</svg>
