<svg width="52" height="52" viewBox="0 0 52 52" fill="none" xmlns="http://www.w3.org/2000/svg">
<path fill-rule="evenodd" clip-rule="evenodd" d="M27.625 33.3082C29.126 34.5122 30.985 35.1822 32.9089 35.2127C34.8328 35.2432 36.7121 34.6324 38.2505 33.4767C39.7889 32.321 40.8988 30.6861 41.4052 28.8298C41.9117 26.9735 41.7858 25.0014 41.0475 23.2246C40.4301 21.7323 39.408 20.4423 38.0965 19.5001C39.2153 18.6982 40.1267 17.641 40.7552 16.4164C41.3838 15.1918 41.7112 13.8349 41.7105 12.4584C41.7105 10.1599 40.7974 7.95547 39.1721 6.33016C37.5468 4.70484 35.3424 3.79175 33.0438 3.79175H18.9605C17.1257 3.79122 15.338 4.37304 13.8549 5.45341C12.3719 6.53379 11.27 8.05698 10.7079 9.80361C10.1459 11.5502 10.1527 13.4302 10.7273 15.1727C11.302 16.9153 12.4149 18.4304 13.9057 19.5001C12.7873 20.3025 11.8762 21.3597 11.2477 22.5842C10.6192 23.8087 10.2913 25.1653 10.2913 26.5417C10.2913 27.9182 10.6192 29.2748 11.2477 30.4993C11.8762 31.7238 12.7873 32.781 13.9057 33.5834C12.6991 34.4492 11.7353 35.6105 11.1066 36.9558C10.4779 38.3012 10.2055 39.7856 10.3154 41.2665C10.4254 42.7474 10.914 44.1753 11.7345 45.4131C12.555 46.6509 13.6797 47.6571 15.0009 48.3352C16.322 49.0133 17.7953 49.3406 19.2793 49.2856C20.7633 49.2306 22.2082 48.7952 23.4756 48.0212C24.7429 47.2471 25.7901 46.1604 26.5167 44.8653C27.2433 43.5702 27.6249 42.1101 27.625 40.6251V33.3082ZM18.9583 7.04175C17.5217 7.04175 16.144 7.61243 15.1282 8.62825C14.1123 9.64408 13.5417 11.0218 13.5417 12.4584C13.5417 13.895 14.1123 15.2728 15.1282 16.2886C16.144 17.3044 17.5217 17.8751 18.9583 17.8751H24.375V7.04175H18.9583ZM24.375 35.2084H18.9583C17.887 35.2084 16.8398 35.5261 15.949 36.1213C15.0582 36.7165 14.364 37.5624 13.954 38.5522C13.544 39.542 13.4367 40.6311 13.6457 41.6818C13.8547 42.7326 14.3706 43.6977 15.1282 44.4552C15.8857 45.2128 16.8509 45.7287 17.9016 45.9377C18.9523 46.1467 20.0414 46.0394 21.0312 45.6294C22.021 45.2195 22.8669 44.5252 23.4621 43.6344C24.0573 42.7437 24.375 41.6964 24.375 40.6251V35.2084ZM18.9583 21.1251C17.5217 21.1251 16.144 21.6958 15.1282 22.7116C14.1123 23.7274 13.5417 25.1052 13.5417 26.5417C13.5417 27.9783 14.1123 29.3561 15.1282 30.3719C16.144 31.3877 17.5217 31.9584 18.9583 31.9584H24.375V21.1251H18.9583ZM27.625 26.5417C27.625 27.9786 28.1958 29.3567 29.2118 30.3727C30.2278 31.3887 31.6059 31.9595 33.0427 31.9595C34.4796 31.9595 35.8576 31.3887 36.8737 30.3727C37.8897 29.3567 38.4605 27.9786 38.4605 26.5417C38.4605 25.1049 37.8897 23.7268 36.8737 22.7108C35.8576 21.6948 34.4796 21.124 33.0427 21.124C31.6059 21.124 30.2278 21.6948 29.2118 22.7108C28.1958 23.7268 27.625 25.1049 27.625 26.5417ZM33.0417 17.8751C34.4782 17.8751 35.856 17.3044 36.8718 16.2886C37.8876 15.2728 38.4583 13.895 38.4583 12.4584C38.4583 11.0218 37.8876 9.64408 36.8718 8.62825C35.856 7.61243 34.4782 7.04175 33.0417 7.04175H27.625V17.8751H33.0417Z" fill="#959595"/>
</svg>
