<svg width="352" height="182" viewBox="0 0 352 182" fill="none" xmlns="http://www.w3.org/2000/svg">
<path d="M214.88 162.36C212.507 162.36 210.387 161.907 208.52 161C206.68 160.093 205.24 158.827 204.2 157.2C203.16 155.573 202.64 153.72 202.64 151.64V144.28C202.64 142.2 203.147 140.36 204.16 138.76C205.2 137.133 206.627 135.88 208.44 135C210.253 134.093 212.333 133.64 214.68 133.64C217.027 133.64 219.107 134 220.92 134.72C222.76 135.413 224.187 136.387 225.2 137.64C226.213 138.893 226.72 140.333 226.72 141.96C226.72 142.947 226.387 143.72 225.72 144.28C225.08 144.84 224.213 145.12 223.12 145.12C222.587 145.12 222 145.04 221.36 144.88C221.413 144.24 221.44 143.613 221.44 143C221.44 141.587 220.813 140.44 219.56 139.56C218.307 138.68 216.68 138.24 214.68 138.24C212.707 138.24 211.093 138.8 209.84 139.92C208.613 141.04 208 142.493 208 144.28V151.64C208 153.427 208.64 154.893 209.92 156.04C211.2 157.187 212.853 157.76 214.88 157.76C216.853 157.76 218.453 157.307 219.68 156.4C220.933 155.467 221.56 154.267 221.56 152.8V151.56H218.12C217.107 151.56 216.28 151.173 215.64 150.4C215 149.6 214.68 148.573 214.68 147.32H224.4C225.147 147.32 225.747 147.547 226.2 148C226.653 148.453 226.88 149.053 226.88 149.8V152.92C226.88 154.76 226.373 156.4 225.36 157.84C224.347 159.253 222.92 160.36 221.08 161.16C219.267 161.96 217.2 162.36 214.88 162.36ZM248.541 158.48C248.541 159.733 248.141 160.693 247.341 161.36C246.568 162.027 245.381 162.36 243.781 162.36V159.96C244.128 159.56 244.448 159.12 244.741 158.64L244.501 158.48C242.794 161.067 240.501 162.36 237.621 162.36C236.261 162.36 235.034 162.053 233.941 161.44C232.874 160.8 232.021 159.92 231.381 158.8C230.768 157.68 230.461 156.413 230.461 155V144.68C230.461 143.587 230.861 142.813 231.661 142.36C232.488 141.88 233.741 141.64 235.421 141.64V154.64C235.421 155.68 235.741 156.507 236.381 157.12C237.021 157.733 237.941 158.04 239.141 158.04C240.474 158.04 241.541 157.627 242.341 156.8C243.168 155.947 243.581 154.893 243.581 153.64V144.68C243.581 143.587 243.981 142.813 244.781 142.36C245.581 141.88 246.834 141.64 248.541 141.64V158.48ZM261.963 162.36C260.309 162.36 258.803 162.04 257.443 161.4C256.083 160.733 255.003 159.84 254.203 158.72C253.403 157.573 253.003 156.293 253.003 154.88V149.56C253.003 148.067 253.416 146.72 254.243 145.52C255.069 144.32 256.163 143.373 257.523 142.68C258.909 141.987 260.403 141.64 262.003 141.64C263.576 141.64 265.016 141.973 266.323 142.64C267.656 143.28 268.709 144.187 269.483 145.36C270.256 146.507 270.643 147.827 270.643 149.32V151.56C270.643 152.147 270.416 152.64 269.963 153.04C269.536 153.44 268.989 153.64 268.323 153.64H257.843V154.52C257.843 155.667 258.189 156.6 258.883 157.32C259.576 158.04 260.616 158.4 262.003 158.4C263.336 158.4 264.323 158.107 264.963 157.52C265.629 156.933 265.963 156.173 265.963 155.24C266.443 155.187 266.776 155.16 266.963 155.16C267.949 155.16 268.723 155.387 269.283 155.84C269.843 156.267 270.123 156.88 270.123 157.68C270.123 158.453 269.763 159.2 269.043 159.92C268.323 160.64 267.336 161.227 266.083 161.68C264.829 162.133 263.456 162.36 261.963 162.36ZM266.123 150.08V149.32C266.123 148.2 265.736 147.293 264.963 146.6C264.189 145.907 263.189 145.56 261.963 145.56C260.736 145.56 259.736 145.907 258.963 146.6C258.216 147.267 257.843 148.173 257.843 149.32V150.08H266.123ZM282.613 162.36C280.053 162.36 277.986 161.907 276.413 161C274.866 160.067 274.079 158.827 274.053 157.28C274.053 156.613 274.319 156.053 274.853 155.6C275.413 155.147 276.293 154.907 277.493 154.88C277.733 156.053 278.293 156.96 279.173 157.6C280.053 158.213 281.119 158.52 282.373 158.52C283.733 158.52 284.799 158.347 285.573 158C286.346 157.653 286.733 157.133 286.733 156.44C286.733 155.8 286.413 155.267 285.773 154.84C285.159 154.413 283.933 153.987 282.093 153.56C280.093 153.08 278.533 152.6 277.413 152.12C276.319 151.64 275.506 151.027 274.973 150.28C274.439 149.533 274.173 148.547 274.173 147.32C274.173 145.613 274.893 144.24 276.333 143.2C277.773 142.16 279.746 141.64 282.253 141.64C284.679 141.64 286.693 142.08 288.293 142.96C289.893 143.813 290.693 144.96 290.693 146.4C290.693 147.12 290.426 147.653 289.893 148C289.359 148.347 288.479 148.533 287.253 148.56C286.986 147.493 286.479 146.693 285.733 146.16C284.986 145.627 283.933 145.36 282.573 145.36C281.559 145.36 280.679 145.533 279.933 145.88C279.213 146.227 278.853 146.68 278.853 147.24C278.853 147.827 279.159 148.28 279.773 148.6C280.386 148.92 281.453 149.24 282.973 149.56C285.959 150.2 288.119 151.053 289.453 152.12C290.813 153.187 291.493 154.64 291.493 156.48C291.493 158.267 290.693 159.693 289.093 160.76C287.519 161.827 285.359 162.36 282.613 162.36ZM303.199 162.36C300.639 162.36 298.572 161.907 296.999 161C295.452 160.067 294.665 158.827 294.639 157.28C294.639 156.613 294.905 156.053 295.439 155.6C295.999 155.147 296.879 154.907 298.079 154.88C298.319 156.053 298.879 156.96 299.759 157.6C300.639 158.213 301.705 158.52 302.959 158.52C304.319 158.52 305.385 158.347 306.159 158C306.932 157.653 307.319 157.133 307.319 156.44C307.319 155.8 306.999 155.267 306.359 154.84C305.745 154.413 304.519 153.987 302.679 153.56C300.679 153.08 299.119 152.6 297.999 152.12C296.905 151.64 296.092 151.027 295.559 150.28C295.025 149.533 294.759 148.547 294.759 147.32C294.759 145.613 295.479 144.24 296.919 143.2C298.359 142.16 300.332 141.64 302.839 141.64C305.265 141.64 307.279 142.08 308.879 142.96C310.479 143.813 311.279 144.96 311.279 146.4C311.279 147.12 311.012 147.653 310.479 148C309.945 148.347 309.065 148.533 307.839 148.56C307.572 147.493 307.065 146.693 306.319 146.16C305.572 145.627 304.519 145.36 303.159 145.36C302.145 145.36 301.265 145.533 300.519 145.88C299.799 146.227 299.439 146.68 299.439 147.24C299.439 147.827 299.745 148.28 300.359 148.6C300.972 148.92 302.039 149.24 303.559 149.56C306.545 150.2 308.705 151.053 310.039 152.12C311.399 153.187 312.079 154.64 312.079 156.48C312.079 158.267 311.279 159.693 309.679 160.76C308.105 161.827 305.945 162.36 303.199 162.36ZM324.385 162.36C322.731 162.36 321.225 162.04 319.865 161.4C318.505 160.733 317.425 159.84 316.625 158.72C315.825 157.573 315.425 156.293 315.425 154.88V149.56C315.425 148.067 315.838 146.72 316.665 145.52C317.491 144.32 318.585 143.373 319.945 142.68C321.331 141.987 322.825 141.64 324.425 141.64C325.998 141.64 327.438 141.973 328.745 142.64C330.078 143.28 331.131 144.187 331.905 145.36C332.678 146.507 333.065 147.827 333.065 149.32V151.56C333.065 152.147 332.838 152.64 332.385 153.04C331.958 153.44 331.411 153.64 330.745 153.64H320.265V154.52C320.265 155.667 320.611 156.6 321.305 157.32C321.998 158.04 323.038 158.4 324.425 158.4C325.758 158.4 326.745 158.107 327.385 157.52C328.051 156.933 328.385 156.173 328.385 155.24C328.865 155.187 329.198 155.16 329.385 155.16C330.371 155.16 331.145 155.387 331.705 155.84C332.265 156.267 332.545 156.88 332.545 157.68C332.545 158.453 332.185 159.2 331.465 159.92C330.745 160.64 329.758 161.227 328.505 161.68C327.251 162.133 325.878 162.36 324.385 162.36ZM328.545 150.08V149.32C328.545 148.2 328.158 147.293 327.385 146.6C326.611 145.907 325.611 145.56 324.385 145.56C323.158 145.56 322.158 145.907 321.385 146.6C320.638 147.267 320.265 148.173 320.265 149.32V150.08H328.545ZM347.195 145.96C345.621 145.96 344.341 146.387 343.355 147.24C342.368 148.067 341.875 149.107 341.875 150.36V159.32C341.875 160.387 341.475 161.16 340.675 161.64C339.875 162.12 338.621 162.36 336.915 162.36V145.48C336.915 144.253 337.301 143.307 338.075 142.64C338.875 141.973 340.075 141.64 341.675 141.64V144C341.275 144.453 340.955 144.893 340.715 145.32L340.955 145.48C342.635 142.92 344.741 141.64 347.275 141.64C348.421 141.64 349.288 141.947 349.875 142.56C350.461 143.147 350.755 143.893 350.755 144.8C350.755 145.493 350.568 146.08 350.195 146.56C349.475 146.16 348.475 145.96 347.195 145.96Z" fill="white" fill-opacity="0.8"/>
<path d="M147.87 0C110.446 0 80 30.4581 80 67.8966C80 123.677 141.114 178.143 143.716 180.435C144.904 181.479 146.386 182.003 147.87 182.003C149.353 182.003 150.836 181.48 152.023 180.435C154.624 178.143 215.739 123.678 215.739 67.8966C215.739 30.4581 185.293 0 147.87 0ZM147.87 167.104C134.358 154.011 92.5686 110.096 92.5686 67.8966C92.5686 37.3889 117.377 12.5686 147.87 12.5686C178.363 12.5686 203.171 37.3889 203.171 67.8966C203.171 110.095 161.381 154.011 147.87 167.104Z" fill="#FA3030" fill-opacity="0.6"/>
<circle cx="150.378" cy="70.3779" r="24.252" stroke="#FA3030" stroke-opacity="0.6" stroke-width="15"/>
<path d="M13.88 74.36C11.5067 74.36 9.38667 73.9067 7.52 73C5.68 72.0933 4.24 70.8267 3.2 69.2C2.16 67.5733 1.64 65.72 1.64 63.64V56.28C1.64 54.2 2.14667 52.36 3.16 50.76C4.2 49.1333 5.62667 47.88 7.44 47C9.25333 46.0933 11.3333 45.64 13.68 45.64C16.0267 45.64 18.1067 46 19.92 46.72C21.76 47.4133 23.1867 48.3867 24.2 49.64C25.2133 50.8933 25.72 52.3333 25.72 53.96C25.72 54.9467 25.3867 55.72 24.72 56.28C24.08 56.84 23.2133 57.12 22.12 57.12C21.5867 57.12 21 57.04 20.36 56.88C20.4133 56.24 20.44 55.6133 20.44 55C20.44 53.5867 19.8133 52.44 18.56 51.56C17.3067 50.68 15.68 50.24 13.68 50.24C11.7067 50.24 10.0933 50.8 8.84 51.92C7.61333 53.04 7 54.4933 7 56.28V63.64C7 65.4267 7.64 66.8933 8.92 68.04C10.2 69.1867 11.8533 69.76 13.88 69.76C15.8533 69.76 17.4533 69.3067 18.68 68.4C19.9333 67.4667 20.56 66.2667 20.56 64.8V63.56H17.12C16.1067 63.56 15.28 63.1733 14.64 62.4C14 61.6 13.68 60.5733 13.68 59.32H23.4C24.1467 59.32 24.7467 59.5467 25.2 60C25.6533 60.4533 25.88 61.0533 25.88 61.8V64.92C25.88 66.76 25.3733 68.4 24.36 69.84C23.3467 71.2533 21.92 72.36 20.08 73.16C18.2667 73.96 16.2 74.36 13.88 74.36ZM37.5253 74.36C35.872 74.36 34.3653 74.04 33.0053 73.4C31.6453 72.7333 30.5653 71.84 29.7653 70.72C28.9653 69.5733 28.5653 68.2933 28.5653 66.88V61.56C28.5653 60.0667 28.9786 58.72 29.8053 57.52C30.632 56.32 31.7253 55.3733 33.0853 54.68C34.472 53.9867 35.9653 53.64 37.5653 53.64C39.1386 53.64 40.5786 53.9733 41.8853 54.64C43.2186 55.28 44.272 56.1867 45.0453 57.36C45.8186 58.5067 46.2053 59.8267 46.2053 61.32V63.56C46.2053 64.1467 45.9786 64.64 45.5253 65.04C45.0986 65.44 44.552 65.64 43.8853 65.64H33.4053V66.52C33.4053 67.6667 33.752 68.6 34.4453 69.32C35.1386 70.04 36.1786 70.4 37.5653 70.4C38.8986 70.4 39.8853 70.1067 40.5253 69.52C41.192 68.9333 41.5253 68.1733 41.5253 67.24C42.0053 67.1867 42.3386 67.16 42.5253 67.16C43.512 67.16 44.2853 67.3867 44.8453 67.84C45.4053 68.2667 45.6853 68.88 45.6853 69.68C45.6853 70.4533 45.3253 71.2 44.6053 71.92C43.8853 72.64 42.8986 73.2267 41.6453 73.68C40.392 74.1333 39.0186 74.36 37.5253 74.36ZM41.6853 62.08V61.32C41.6853 60.2 41.2986 59.2933 40.5253 58.6C39.752 57.9067 38.752 57.56 37.5253 57.56C36.2986 57.56 35.2986 57.9067 34.5253 58.6C33.7786 59.2667 33.4053 60.1733 33.4053 61.32V62.08H41.6853ZM57.3997 74.36C55.6664 74.36 54.093 74.0533 52.6797 73.44C51.293 72.8 50.1997 71.92 49.3997 70.8C48.5997 69.68 48.1997 68.4133 48.1997 67V61.36C48.1997 59.92 48.5864 58.6133 49.3597 57.44C50.1597 56.2667 51.253 55.3467 52.6397 54.68C54.0264 53.9867 55.613 53.64 57.3997 53.64C59.1864 53.64 60.773 53.9867 62.1597 54.68C63.573 55.3467 64.6664 56.2667 65.4397 57.44C66.2397 58.6133 66.6397 59.92 66.6397 61.36V67C66.6397 68.4133 66.2264 69.68 65.3997 70.8C64.5997 71.92 63.493 72.8 62.0797 73.44C60.693 74.0533 59.133 74.36 57.3997 74.36ZM57.3997 70.08C58.733 70.08 59.773 69.7733 60.5197 69.16C61.293 68.5467 61.6797 67.72 61.6797 66.68V61.6C61.6797 60.5067 61.293 59.6267 60.5197 58.96C59.773 58.2667 58.733 57.92 57.3997 57.92C56.093 57.92 55.053 58.2667 54.2797 58.96C53.5064 59.6267 53.1197 60.5067 53.1197 61.6V66.68C53.1197 67.72 53.5064 68.5467 54.2797 69.16C55.053 69.7733 56.093 70.08 57.3997 70.08Z" fill="white" fill-opacity="0.6"/>
</svg>
