<svg width="54" height="54" viewBox="0 0 54 54" fill="none" xmlns="http://www.w3.org/2000/svg">
<path fill-rule="evenodd" clip-rule="evenodd" d="M27.0001 0.75C12.1747 0.75 0.166748 12.7579 0.166748 27.5833C0.166748 39.4571 7.84779 49.486 18.514 53.0415C19.8557 53.2762 20.3588 52.4712 20.3588 51.7669C20.3588 51.1296 20.3253 49.0165 20.3253 46.7692C13.5834 48.0102 11.8392 45.1256 11.3026 43.6162C11.0007 42.8448 9.69258 40.4633 8.55216 39.826C7.613 39.3229 6.27133 38.0819 8.51862 38.0483C10.6317 38.0148 12.1411 39.9937 12.6442 40.7987C15.0592 44.8573 18.9165 43.7169 20.4595 43.0125C20.6942 41.2683 21.3986 40.0944 22.1701 39.4235C16.1997 38.7527 9.96091 36.4383 9.96091 26.1746C9.96091 23.2565 11.0007 20.8415 12.7113 18.9631C12.443 18.2923 11.5038 15.5419 12.9797 11.8523C12.9797 11.8523 15.227 11.1479 20.3588 14.6027C22.5055 13.999 24.7863 13.6971 27.0672 13.6971C29.348 13.6971 31.6288 13.999 33.7755 14.6027C38.9074 11.1144 41.1547 11.8523 41.1547 11.8523C42.6305 15.5419 41.6913 18.2923 41.423 18.9631C43.1336 20.8415 44.1734 23.2229 44.1734 26.1746C44.1734 36.4719 37.9011 38.7527 31.9307 39.4235C32.9034 40.2621 33.742 41.8721 33.742 44.3877C33.742 47.9767 33.7084 50.8612 33.7084 51.7669C33.7084 52.4712 34.2115 53.3098 35.5532 53.0415C46.1524 49.486 53.8334 39.4235 53.8334 27.5833C53.8334 12.7579 41.8255 0.75 27.0001 0.75V0.75Z" fill="white" fill-opacity="0.8"/>
</svg>
