<svg width="48" height="48" viewBox="0 0 48 48" fill="none" xmlns="http://www.w3.org/2000/svg">
<path d="M36 13.5599C36.1457 13.5708 36.2836 13.6298 36.3922 13.7275C36.5008 13.8252 36.5738 13.9562 36.6 14.0999C37.56 18.0999 41.96 28.5999 40.9 34.0999C39.54 41.1799 36.9 43.6399 32.34 44.2799C27.78 44.9199 12.52 43.9999 12.52 43.9999C6.74 42.9199 3 39.3999 3 34.1399C2.9893 32.0212 3.68716 29.9597 4.98264 28.2832C6.27812 26.6067 8.09687 25.4114 10.1497 24.8872C12.2026 24.3631 14.3718 24.5402 16.3124 25.3905C18.253 26.2408 19.8537 27.7154 20.86 29.5799C22.1612 28.9434 23.5915 28.615 25.04 28.6199C26.1375 28.6204 27.2268 28.8098 28.26 29.1799C27.5816 27.3424 27.2362 25.3987 27.24 23.4399C27.2781 21.4576 26.9806 19.483 26.36 17.5999C25.8282 15.9325 24.7135 14.5125 23.22 13.5999L25.1 13.8199C25.6 11.1399 27.48 8.31992 29.52 9.25992C31.56 10.1999 29.52 12.6199 29.52 12.6199C29.8228 13.129 30.178 13.6049 30.58 14.0399C32.54 13.9999 34.6 13.7399 36 13.5599Z" stroke="white" stroke-opacity="0.6" stroke-width="2" stroke-linecap="round" stroke-linejoin="round"/>
<path d="M32 15.3799C31.5162 14.9938 31.0678 14.5654 30.66 14.0999M25.18 13.8799C25.127 14.1505 25.0936 14.4245 25.08 14.6999" stroke="white" stroke-opacity="0.6" stroke-width="2" stroke-linecap="round" stroke-linejoin="round"/>
<path d="M20.86 29.6201C19.7526 30.2275 18.885 31.1939 18.4 32.3601" stroke="white" stroke-opacity="0.6" stroke-width="2" stroke-linecap="round" stroke-linejoin="round"/>
<path d="M28.3 29.2202C28.3 29.2202 30.02 29.6202 31.5 32.3602" stroke="white" stroke-opacity="0.6" stroke-width="2" stroke-linecap="round" stroke-linejoin="round"/>
<path d="M21.16 6.96023C21.16 6.2423 20.8762 5.55347 20.3704 5.04394C19.8646 4.53441 19.1779 4.24551 18.46 4.24023H16.14C15.7838 4.24022 15.431 4.31072 15.1021 4.44766C14.7732 4.58459 14.4747 4.78526 14.2237 5.0381C13.9727 5.29094 13.7743 5.59096 13.6398 5.92085C13.5053 6.25074 13.4374 6.60399 13.44 6.96023V13.6802C13.4374 14.0365 13.5053 14.3897 13.6398 14.7196C13.7743 15.0495 13.9727 15.3495 14.2237 15.6024C14.4747 15.8552 14.7732 16.0559 15.1021 16.1928C15.431 16.3298 15.7838 16.4002 16.14 16.4002H18.46C19.1779 16.395 19.8646 16.1061 20.3704 15.5965C20.8762 15.087 21.16 14.3982 21.16 13.6802V6.96023Z" stroke="white" stroke-opacity="0.6" stroke-width="2" stroke-linecap="round" stroke-linejoin="round"/>
<path d="M37.2601 13.6798V6.95982C37.2601 6.60094 37.3311 6.2456 37.469 5.91428C37.6069 5.58296 37.8091 5.28222 38.0638 5.02938C38.3185 4.77655 38.6207 4.57661 38.953 4.4411C39.2853 4.30559 39.6412 4.23718 40.0001 4.23982H42.3201C43.0345 4.25033 43.7161 4.54153 44.2176 5.05049C44.7191 5.55946 45.0001 6.24531 45.0001 6.95982V13.6798C45.0001 14.3978 44.7163 15.0866 44.2105 15.5961C43.7047 16.1056 43.018 16.3945 42.3001 16.3998H39.6801C39.0119 16.3257 38.3948 16.0067 37.9479 15.5044C37.501 15.0021 37.256 14.3521 37.2601 13.6798Z" stroke="white" stroke-opacity="0.6" stroke-width="2" stroke-linecap="round" stroke-linejoin="round"/>
<path d="M23.26 13.66L21.16 13.36V7.35998L22 7.15998L23.34 6.97998C23.86 8.29998 26.32 8.97998 29.34 8.97998C32.36 8.97998 34.74 8.25998 35.34 6.97998L36.18 7.09998L37.38 7.29998V13.3L36 13.56C34.68 13.74 32.62 14 30.7 14.1C30.2965 13.6614 29.9349 13.186 29.62 12.68C29.62 12.68 31.86 10.36 29.62 9.31998C27.38 8.27998 25.72 11.2 25.22 13.88L23.26 13.66Z" stroke="white" stroke-opacity="0.6" stroke-width="2" stroke-linecap="round" stroke-linejoin="round"/>
<path d="M23.36 6.97986C23.3304 6.59376 23.3304 6.20596 23.36 5.81986C23.36 4.15986 26.06 3.35986 29.36 3.35986C32.66 3.35986 35.36 4.15986 35.36 5.81986C35.3564 6.20852 35.323 6.59633 35.26 6.97986C34.72 8.29986 32.26 8.97986 29.26 8.97986C26.26 8.97986 23.88 8.29986 23.36 6.97986Z" stroke="white" stroke-opacity="0.6" stroke-width="2" stroke-linecap="round" stroke-linejoin="round"/>
</svg>
