<svg width="42" height="39" viewBox="0 0 42 39" fill="none" xmlns="http://www.w3.org/2000/svg">
<path fill-rule="evenodd" clip-rule="evenodd" d="M39.4262 29.9537C39.6993 30.2212 40.0683 30.3737 40.4545 30.3786C40.8407 30.3737 41.2097 30.2212 41.4829 29.9537C41.756 29.6861 41.9117 29.3247 41.9167 28.9464V21.3077C41.9167 15.8631 39.7086 10.6415 35.7782 6.79158C31.8477 2.94167 26.5169 0.778809 20.9584 0.778809C15.3999 0.778809 10.069 2.94167 6.13856 6.79158C2.20811 10.6415 8.28281e-08 15.8631 0 21.3077V28.9464C0 29.3262 0.154054 29.6905 0.428272 29.9591C0.70249 30.2277 1.07441 30.3786 1.46221 30.3786C1.85001 30.3786 2.22193 30.2277 2.49615 29.9591C2.77037 29.6905 2.92442 29.3262 2.92442 28.9464V21.3077C2.92442 16.6228 4.82442 12.1298 8.20644 8.81709C11.5885 5.50437 16.1755 3.64331 20.9584 3.64331C25.7413 3.64331 30.3283 5.50437 33.7103 8.81709C37.0923 12.1298 38.9923 16.6228 38.9923 21.3077V28.9464C38.9974 29.3247 39.153 29.6861 39.4262 29.9537ZM11.2103 38.0173C9.78834 38.0173 8.42464 37.464 7.41917 36.4791C6.41371 35.4943 5.84885 34.1585 5.84885 32.7657V25.127C5.84885 23.7342 6.41371 22.3985 7.41917 21.4136C8.42464 20.4288 9.78834 19.8755 11.2103 19.8755C12.6322 19.8755 13.9959 20.4288 15.0014 21.4136C16.0069 22.3985 16.5717 23.7342 16.5717 25.127V32.7657C16.5717 34.1585 16.0069 35.4943 15.0014 36.4791C13.9959 37.464 12.6322 38.0173 11.2103 38.0173ZM11.2103 22.74C10.5639 22.74 9.94408 22.9915 9.48705 23.4391C9.03002 23.8868 8.77327 24.4939 8.77327 25.127V32.7657C8.77327 33.3988 9.03002 34.006 9.48705 34.4536C9.94408 34.9013 10.5639 35.1528 11.2103 35.1528C11.8566 35.1528 12.4765 34.9013 12.9335 34.4536C13.3905 34.006 13.6473 33.3988 13.6473 32.7657V25.127C13.6473 24.4939 13.3905 23.8868 12.9335 23.4391C12.4765 22.9915 11.8566 22.74 11.2103 22.74ZM30.7064 38.0173C29.2845 38.0173 27.9208 37.464 26.9153 36.4791C25.9099 35.4943 25.345 34.1585 25.345 32.7657V25.127C25.345 23.7342 25.9099 22.3985 26.9153 21.4136C27.9208 20.4288 29.2845 19.8755 30.7064 19.8755C32.1284 19.8755 33.4921 20.4288 34.4975 21.4136C35.503 22.3985 36.0679 23.7342 36.0679 25.127V32.7657C36.0679 34.1585 35.503 35.4943 34.4975 36.4791C33.4921 37.464 32.1284 38.0173 30.7064 38.0173ZM30.7064 22.74C30.0601 22.74 29.4402 22.9915 28.9832 23.4391C28.5262 23.8868 28.2694 24.4939 28.2694 25.127V32.7657C28.2694 33.3988 28.5262 34.006 28.9832 34.4536C29.4402 34.9013 30.0601 35.1528 30.7064 35.1528C31.3528 35.1528 31.9726 34.9013 32.4297 34.4536C32.8867 34.006 33.1435 33.3988 33.1435 32.7657V25.127C33.1435 24.4939 32.8867 23.8868 32.4297 23.4391C31.9726 22.9915 31.3528 22.74 30.7064 22.74Z" fill="white" fill-opacity="0.6"/>
</svg>
