<svg width="47" height="47" viewBox="0 0 47 47" fill="none" xmlns="http://www.w3.org/2000/svg">
<g clip-path="url(#clip0_107_352)">
<path d="M47 47H0V0H47V47Z" fill="white" fill-opacity="0.5"/>
<path d="M12.5211 36.4616C12.5211 36.4983 12.5578 36.5351 12.5578 36.5718L13.3657 37.3796C13.4024 37.4163 13.4391 37.4163 13.4758 37.4163H16.2297C16.2664 37.4163 16.3031 37.3796 16.3399 37.3796L17.1477 36.5718C17.1844 36.5351 17.1844 36.4983 17.1844 36.4616V27.7226C17.1844 27.6858 17.2211 27.6491 17.2211 27.6124L20.7094 24.271C20.7461 24.2343 20.7828 24.2343 20.7828 24.271L29.6321 37.3429C29.6688 37.3796 29.7055 37.3796 29.7422 37.3796H33.6344C33.6711 37.3796 33.7078 37.3429 33.7446 37.3062L34.4422 35.9476V35.8374L24.1242 20.8929C24.0875 20.8562 24.1242 20.8194 24.1242 20.7827L33.6344 11.3093C33.6711 11.2726 33.6711 11.2358 33.6711 11.1991V11.0155C33.6711 10.9788 33.6711 10.9421 33.6344 10.9054L33.0836 9.65693C33.0836 9.62021 33.0469 9.5835 33.0102 9.5835H29.1547C29.118 9.5835 29.0813 9.62021 29.0446 9.62021L17.2578 21.4804C17.2211 21.5171 17.2211 21.4804 17.2211 21.4437V10.6116C17.2211 10.5749 17.1844 10.5382 17.1844 10.5015L16.3766 9.65693C16.3399 9.62021 16.3031 9.62021 16.2664 9.62021H13.4758C13.4391 9.62021 13.4024 9.65693 13.3657 9.65693L12.5578 10.5382C12.5211 10.5749 12.5211 10.6116 12.5211 10.6483V36.4616Z" fill="white" fill-opacity="0.5"/>
</g>
<defs>
<clipPath id="clip0_107_352">
<rect width="47" height="47" fill="white"/>
</clipPath>
</defs>
</svg>
