<svg width="32" height="32" viewBox="0 0 32 32" fill="none" xmlns="http://www.w3.org/2000/svg">
<g clip-path="url(#clip0_145_175)">
<path d="M21.4693 23.9068L17.8733 27.3828C17.2519 28.0055 16.3919 28.2655 15.4426 28.2655C14.4933 28.2655 13.6333 28.0055 13.0106 27.3828L7.23461 21.5655C6.61195 20.9428 6.29861 20.0321 6.29861 19.0815C6.29861 18.1308 6.61195 17.2721 7.23461 16.6495L12.9933 10.8095C13.6159 10.1868 14.4933 9.94948 15.4426 9.94948C16.3919 9.94948 17.2519 10.2095 17.8733 10.8321L21.4693 14.3068C22.1546 14.9935 23.2893 14.9695 24.0026 14.2561C24.7159 13.5415 24.7399 12.4068 24.0546 11.7215L20.5759 8.20681C19.6778 7.31889 18.5482 6.70119 17.3159 6.42415L20.6053 3.08681C21.2933 2.40148 21.2693 1.26548 20.5559 0.552147C19.8426 -0.161186 18.7066 -0.183853 18.0199 0.50148L4.55328 13.9695C3.24528 15.2788 2.56128 17.0855 2.56128 19.0828C2.56128 21.0801 3.24528 22.9428 4.55328 24.2495L10.3493 30.0641C11.6573 31.3695 13.4653 32.0001 15.4613 32.0001C17.4573 32.0001 19.2653 31.3175 20.5746 30.0081L24.0533 26.4921C24.7386 25.8068 24.7146 24.6721 24.0013 23.9588C23.2879 23.2455 22.1533 23.2215 21.4693 23.9068ZM27.7479 17.3468H14.2213C13.2853 17.3468 12.5279 18.1521 12.5279 19.1415C12.5279 20.1308 13.2853 20.9361 14.2213 20.9361H27.7479C28.6826 20.9361 29.4413 20.1308 29.4413 19.1415C29.4413 18.1521 28.6826 17.3468 27.7479 17.3468Z" fill="#BABABA"/>
</g>
<defs>
<clipPath id="clip0_145_175">
<rect width="32" height="32" fill="white"/>
</clipPath>
</defs>
</svg>
