<svg width="31" height="23" viewBox="0 0 31 23" fill="none" xmlns="http://www.w3.org/2000/svg">
<path fill-rule="evenodd" clip-rule="evenodd" d="M27.9445 0.642822C28.8516 0.642822 29.6572 1.04757 30.1641 1.67362L15.443 13.1649L0.853088 1.88229C1.34091 1.13897 2.22075 0.642822 3.22509 0.642822H27.9445ZM0.447632 19.7721V3.92138L10.9163 12.017L0.469212 20.0959C0.454972 19.9898 0.447632 19.8817 0.447632 19.7721ZM1.40505 21.7248C1.8925 22.1187 2.52888 22.3571 3.22509 22.3571H27.9445C28.5429 22.3571 29.0971 22.181 29.5505 21.8814L18.4263 13.1978L16.4259 14.7594C15.8601 15.201 15.0359 15.2028 14.468 14.7636L12.4374 13.1933L1.40505 21.7248ZM19.9391 12.017L30.646 20.3748C30.6957 20.1814 30.7219 19.9796 30.7219 19.7721V3.59985L19.9391 12.017Z" fill="white" fill-opacity="0.4"/>
</svg>
