<svg width="55" height="59" viewBox="0 0 55 59" fill="none" xmlns="http://www.w3.org/2000/svg">
<g clip-path="url(#clip0_107_320)">
<path d="M41.1529 40.1568L41.1658 53.1898L29.6276 58.9612V45.9338L41.1529 40.1568ZM55 33.1913V46.2697L45.1591 51.1926L45.152 38.1739L55 33.1913ZM41.1355 22.7124L41.1484 35.6086L29.6274 41.347V28.4465L41.1355 22.7124ZM55 15.8035V28.6188L45.1492 33.6384L45.1406 20.7163L55 15.8035ZM27.8734 14.2875L38.1715 19.4978L27.4871 24.8762L17.3835 19.7896L27.8734 14.2875ZM13.5491 7.04006L23.3714 12.0097L12.8573 17.5104L2.76956 12.4324L13.5491 7.04006ZM41.6271 7.11543L52.2066 12.4324L42.7449 17.196L32.4255 11.9785L41.6271 7.11543ZM27.5501 0.0388184L37.0741 4.82497L27.9419 9.71212L18.1279 4.75068L27.5501 0.0388184Z" fill="white" fill-opacity="0.3"/>
<path d="M25.5544 28.4466L17.7826 24.5303V41.4581C17.7826 41.4581 8.27857 21.1878 7.39793 19.367C7.28449 19.1321 6.81721 18.8743 6.69775 18.8119C4.99361 17.9149 0 15.3794 0 15.3794V45.2861L6.90809 48.9876V33.3553C6.90809 33.3553 16.3114 51.4673 16.4065 51.6652C16.5017 51.8633 17.4464 53.7722 18.4547 54.4426C19.7981 55.3339 25.5559 58.8045 25.5559 58.8045L25.5544 28.4466Z" fill="white" fill-opacity="0.5"/>
</g>
<defs>
<clipPath id="clip0_107_320">
<rect width="55" height="59" fill="white"/>
</clipPath>
</defs>
</svg>
