<svg width="38" height="59" viewBox="0 0 38 59" fill="none" xmlns="http://www.w3.org/2000/svg">
<path fill-rule="evenodd" clip-rule="evenodd" d="M31.0258 22.2994V44.5987L34.2349 44.5653L37.444 44.5318L37.4755 22.2659L37.507 0H31.0258V22.2994ZM10.8367 10.2091V16.9108H17.3172V3.50743H10.8367V10.2091ZM0.49292 36.7028V59H6.97338V14.4055H0.49292V36.7028ZM20.9313 21.1677V27.9342H27.4139L27.3817 21.2012L27.3494 14.4682L24.1404 14.4347L20.9313 14.4013V21.1677ZM10.8367 37.7049V44.4692H17.3172V30.9406H10.8367V37.7049ZM20.9313 48.7282V55.4926H27.4117V41.9639H20.9313V48.7282Z" fill="white" fill-opacity="0.3"/>
<path fill-rule="evenodd" clip-rule="evenodd" d="M10.8367 23.9882V27.1825H17.3172V20.7939H10.8367V23.9882ZM20.9313 35.0116V38.2058H27.4117V31.8173H20.9313V35.0116Z" fill="white" fill-opacity="0.5"/>
</svg>
