<svg width="32" height="31" viewBox="0 0 32 31" fill="none" xmlns="http://www.w3.org/2000/svg">
<path fill-rule="evenodd" clip-rule="evenodd" d="M8.98207 2.00063e-05C10.4597 -0.00567879 11.5833 1.20693 11.4825 2.58001C11.324 4.74079 11.4928 6.29975 11.9472 8.23214C12.1968 9.29361 11.6321 10.3717 10.7347 11.0661C9.68224 11.8805 8.84591 12.8892 8.1626 13.8138C10.1809 17.9431 12.607 20.3466 16.8487 22.5435C17.845 22.0447 18.9132 21.4285 19.8281 20.6234C20.6762 19.8772 21.8931 19.4847 22.9945 19.8431C24.9995 20.4957 26.6409 20.8392 28.9631 20.9525C30.4387 21.0245 31.5961 22.2092 31.4123 23.5748L30.8035 28.0985C30.7087 28.8026 30.2723 29.4433 29.5645 29.7061C25.3614 31.2664 19.7491 29.8894 16.413 28.1916L16.412 28.193C8.94468 24.6672 4.82624 18.9813 2.63531 14.1074C2.61211 14.0698 2.5906 14.0312 2.57086 13.9917C0.978684 10.806 -0.100325 4.93665 2.22471 0.971232C2.58991 0.34836 3.32526 0.0218363 4.08722 0.0188976L8.98207 2.00063e-05Z" fill="white" fill-opacity="0.4"/>
</svg>
