<svg width="51" height="51" viewBox="0 0 51 51" fill="none" xmlns="http://www.w3.org/2000/svg">
<g clip-path="url(#clip0_3_260)">
<path d="M25.2552 0.199219C12.3394 0.19922 13.146 5.80029 13.146 5.80029L13.1604 11.6029H25.4856V13.3452H8.26482C8.26482 13.3452 0 12.4079 0 25.44C-9.21187e-07 38.4722 7.21372 38.0101 7.21372 38.0101H11.5189V31.9626C11.5189 31.9626 11.2869 24.7489 18.6174 24.7489H30.8419C30.8419 24.7489 37.7101 24.8599 37.7101 18.1111V6.95218C37.7101 6.95218 38.7528 0.199219 25.2552 0.199219ZM18.4591 4.10125C19.6853 4.10125 20.6765 5.09237 20.6765 6.31864C20.6765 7.54491 19.6853 8.53603 18.4591 8.53603C17.2328 8.53604 16.2417 7.54491 16.2417 6.31864C16.2417 5.09237 17.2328 4.10125 18.4591 4.10125Z" fill="white" fill-opacity="0.4"/>
<path d="M25.622 50.8117C38.5378 50.8117 37.7313 45.2106 37.7313 45.2106L37.7169 39.4079H25.3917V37.6657H42.6124C42.6124 37.6657 50.8773 38.603 50.8773 25.5708C50.8773 12.5387 43.6635 13.0008 43.6635 13.0008H39.3583V19.0482C39.3583 19.0482 39.5904 26.262 32.2598 26.262H20.0354C20.0354 26.262 13.1672 26.1509 13.1672 32.8997V44.0587C13.1672 44.0587 12.1244 50.8117 25.622 50.8117ZM32.4182 46.9096C31.1919 46.9096 30.2008 45.9185 30.2008 44.6922C30.2008 43.466 31.1919 42.4748 32.4182 42.4748C33.6445 42.4748 34.6356 43.466 34.6356 44.6922C34.6356 45.9185 33.6445 46.9096 32.4182 46.9096Z" fill="white" fill-opacity="0.8"/>
</g>
<defs>
<clipPath id="clip0_3_260">
<rect width="51" height="51" fill="white"/>
</clipPath>
</defs>
</svg>
