<svg width="64" height="64" viewBox="0 0 64 64" fill="none" xmlns="http://www.w3.org/2000/svg">
<g clip-path="url(#clip0_107_407)">
<path d="M50.821 18.8073L46.1745 23.4538C53.9187 31.1979 53.9187 43.8099 46.1745 51.554C38.4303 59.2982 25.8184 59.2982 18.0742 51.554C10.3301 43.8099 10.3301 31.1979 18.0742 23.4538L30.4649 11.0631L32.0137 9.293V0L13.2065 18.8073C10.7352 21.2536 8.77349 24.1655 7.43466 27.3747C6.09584 30.5839 5.40649 34.0267 5.40649 37.5039C5.40649 40.9812 6.09584 44.4239 7.43466 47.6331C8.77349 50.8423 10.7352 53.7542 13.2065 56.2006C15.6528 58.6718 18.5647 60.6335 21.7739 61.9723C24.9831 63.3112 28.4258 64.0005 31.9031 64.0005C35.3804 64.0005 38.8231 63.3112 42.0323 61.9723C45.2415 60.6335 48.1534 58.6718 50.5997 56.2006C61.2203 45.8012 61.2203 28.9853 50.821 18.8073Z" fill="white" fill-opacity="0.5"/>
<path d="M41.528 17.4798C43.4832 17.4798 45.0682 15.8948 45.0682 13.9396C45.0682 11.9844 43.4832 10.3994 41.528 10.3994C39.5728 10.3994 37.9878 11.9844 37.9878 13.9396C37.9878 15.8948 39.5728 17.4798 41.528 17.4798Z" fill="white" fill-opacity="0.5"/>
</g>
<defs>
<clipPath id="clip0_107_407">
<rect width="64" height="64" fill="white"/>
</clipPath>
</defs>
</svg>
