<svg width="51" height="51" viewBox="0 0 51 51" fill="none" xmlns="http://www.w3.org/2000/svg">
<g clip-path="url(#clip0_5_99)">
<path d="M29.1947 25.5001C29.1947 25.9854 29.0991 26.4659 28.9133 26.9142C28.7276 27.3625 28.4554 27.7698 28.1123 28.1129C27.4193 28.8058 26.4794 29.1951 25.4994 29.195C24.5194 29.195 23.5795 28.8056 22.8866 28.1126C22.1937 27.4196 21.8044 26.4797 21.8045 25.4997C21.8045 24.5197 22.1939 23.5799 22.8869 22.8869C23.5799 22.194 24.5198 21.8048 25.4998 21.8048C26.4798 21.8049 27.4196 22.1942 28.1126 22.8872C28.8055 23.5802 29.1948 24.5201 29.1947 25.5001ZM41.9013 16.0281C41.0994 14.6437 40.1234 13.3679 38.9971 12.2317L34.723 14.6973C33.4059 13.5729 31.8957 12.6968 30.2657 12.1118C28.8403 13.5429 27.673 15.2095 26.8152 17.0381C31.5714 16.7142 36.4817 18.437 41.0391 21.9978L43.7285 20.4447C43.3095 18.9007 42.6955 17.4168 41.9013 16.0281ZM25.5 44.4351C27.0984 44.4299 28.6897 44.223 30.2362 43.8191V38.8884C31.8701 38.311 33.3845 37.4395 34.7047 36.3169C34.177 34.3669 33.3178 32.5222 32.1647 30.8635C30.0665 35.1419 26.1223 38.5334 20.7594 40.6997V43.8035C22.3054 44.2193 23.8991 44.4319 25.5 44.4351ZM9.09871 16.0324C8.30296 17.4195 7.68732 18.9023 7.26669 20.4451L11.5391 22.9103C11.2232 24.6128 11.2204 26.3607 11.53 28.0653C13.4821 28.5846 15.5092 28.7631 17.5221 28.5928C14.8617 24.6379 13.9003 19.5236 14.7015 13.796L12.0121 12.2429C10.8835 13.3769 9.90448 14.6503 9.09871 16.0324Z" fill="white" fill-opacity="0.4"/>
<path d="M25.5 0.0498047C11.4443 0.0498047 0.0498047 11.4443 0.0498047 25.5C0.0498047 39.5557 11.4443 50.9502 25.5 50.9502C39.5557 50.9502 50.9502 39.5557 50.9502 25.5C50.9502 11.4443 39.5557 0.0498047 25.5 0.0498047ZM25.5 3.30743C37.736 3.30743 47.693 13.2636 47.693 25.5C47.693 37.736 37.736 47.693 25.5 47.693C13.264 47.693 3.30703 37.736 3.30703 25.5C3.30703 13.264 13.264 3.30743 25.5 3.30743ZM25.5 6.55868C23.9016 6.5651 22.3104 6.77259 20.7638 7.17626V12.1073C19.13 12.684 17.6156 13.5549 16.2953 14.6768C16.8223 16.6271 17.6816 18.4719 18.8353 20.1303C20.9335 15.8534 24.8772 12.4603 30.2406 10.294V7.1918C28.6938 6.7799 27.1007 6.56701 25.5 6.55828V6.55868ZM35.4968 22.3523C34.8256 22.3324 34.1538 22.3506 33.4847 22.4069C36.1423 26.3618 37.1045 31.4762 36.3028 37.2037L38.9923 38.7568C40.117 37.6206 41.0943 36.3474 41.9013 34.9673C42.6982 33.5835 43.3098 32.0985 43.7333 30.5546L39.4652 28.0898C39.784 26.367 39.784 24.6234 39.4744 22.9349C38.1751 22.589 36.8403 22.3939 35.4964 22.3531L35.4968 22.3523ZM9.96094 28.9959L7.27148 30.551C7.69415 32.0937 8.30799 33.5776 9.09872 34.9681C9.90103 36.352 10.877 37.6276 12.0029 38.764L16.277 36.2989C17.5938 37.4232 19.1041 38.2986 20.7343 38.8823C22.1596 37.4519 23.327 35.7858 24.1848 33.9576C19.4286 34.2816 14.5183 32.5571 9.96094 28.9959Z" fill="white" fill-opacity="0.6"/>
</g>
<defs>
<clipPath id="clip0_5_99">
<rect width="51" height="51" fill="white"/>
</clipPath>
</defs>
</svg>
