<svg width="53" height="53" viewBox="0 0 53 53" fill="none" xmlns="http://www.w3.org/2000/svg">
<g clip-path="url(#clip0_107_350)">
<path d="M23.3539 52.966C18.3928 52.6084 13.4894 51.3597 10.4822 49.6879C8.76934 48.7357 7.46435 47.5655 6.95226 46.5226L6.64758 45.902V26.4373V6.97262L6.88867 6.48309C7.96606 4.29571 11.4045 2.32376 16.2044 1.14058C17.8337 0.738913 20.1859 0.338918 22.1048 0.137215C24.0643 -0.0688031 29.258 -0.0374589 31.2126 0.192485C36.4076 0.802818 40.8281 2.1692 43.5523 4.00671C44.6029 4.71532 45.6809 5.84917 46.0461 6.62963L46.3593 7.29879L46.3325 26.7046L46.3057 46.1105L46.0543 46.6211C45.9161 46.902 45.4985 47.4545 45.1264 47.8489C42.8612 50.2502 38.0023 52.0265 31.629 52.7834C30.33 52.9377 24.6866 53.0621 23.3539 52.966ZM32.4964 36.2874C32.4773 36.2377 31.7357 35.577 30.8483 34.8192C29.961 34.0613 29.1967 33.4057 29.15 33.3621C29.1033 33.3186 29.2672 33.1645 29.5143 33.0196C29.7614 32.8748 30.2348 32.4718 30.5663 32.1242C31.5359 31.1076 31.9933 29.8518 31.9933 28.2068C31.9933 26.5874 31.5 25.2809 30.5118 24.2835C29.5159 23.2781 28.3724 22.8462 26.7072 22.8462C24.1405 22.8462 22.1692 24.3439 21.54 26.7721C21.3236 27.6073 21.3247 29.2949 21.5423 30.0355C22.1097 31.9672 23.655 33.3702 25.5783 33.6997C26.2292 33.8111 26.3173 33.8592 26.761 34.3443C27.0247 34.6326 27.5659 35.2081 27.9636 35.6232L28.6867 36.3778H30.6089C31.6661 36.3778 32.5155 36.3372 32.4964 36.2874ZM25.9043 30.9053C25.4416 30.664 25.2666 30.4768 25.0027 29.9403C24.7989 29.5259 24.764 29.2903 24.7618 28.3109C24.7595 27.3158 24.7911 27.1008 25.004 26.6687C25.3521 25.9616 25.8319 25.6269 26.5742 25.5732C27.6073 25.4982 28.2037 26.0053 28.5162 27.2238C28.8994 28.7178 28.478 30.3062 27.5586 30.8333C27.0763 31.1099 26.3568 31.1412 25.9043 30.9053ZM17.3841 33.6785C19.3995 33.2962 20.5435 32.1242 20.5435 30.4417C20.5435 28.9491 19.8049 28.0794 17.7635 27.1681C16.595 26.6464 16.1717 26.319 16.1717 25.9364C16.1717 25.6193 16.5734 25.2718 17.041 25.1845C17.4976 25.0993 18.7085 25.3096 19.4236 25.5985L20.0231 25.8406V24.5138V23.1869L19.3725 23.0426C18.9704 22.9534 18.1255 22.8999 17.1606 22.9026C15.7937 22.9026 15.5261 22.9359 15.0117 23.1402C13.5092 23.7367 12.7962 24.7528 12.8076 26.2812C12.8183 27.712 13.5731 28.6046 15.4517 29.4075C16.5602 29.8813 17.0045 30.242 17.0045 30.6683C17.0045 31.5742 15.495 31.6857 13.8969 30.8979C13.4592 30.6821 13.066 30.488 13.023 30.4665C12.9801 30.445 12.945 31.0648 12.945 31.8438C12.945 33.2539 12.9465 33.2607 13.2018 33.3579C14.1632 33.7235 16.2881 33.8863 17.3841 33.6785ZM40.4245 32.3704V31.1734H38.603H36.7814V27.0618V22.9503H35.168H33.5547V28.2589V33.5674H36.9896H40.4245V32.3704ZM29.1829 11.3937C32.389 11.1713 34.7923 10.7515 36.9071 10.0444C39.014 9.33995 40.2585 8.48757 40.5369 7.55841C40.6442 7.20036 40.6365 7.06454 40.4866 6.67196C39.8145 4.91198 36.0596 3.55978 30.322 3.01153C27.8677 2.77697 23.4042 2.85301 21.0641 3.16911C17.4934 3.65157 14.5955 4.5477 13.3071 5.56795C10.7006 7.63192 13.4569 9.90202 19.8669 10.9705C22.6463 11.4338 26.2471 11.5974 29.1829 11.3937Z" fill="white" fill-opacity="0.5"/>
</g>
<defs>
<clipPath id="clip0_107_350">
<rect width="53" height="53" fill="white"/>
</clipPath>
</defs>
</svg>
