<svg width="55" height="54" viewBox="0 0 55 54" fill="none" xmlns="http://www.w3.org/2000/svg">
<path d="M9.73958 0H45.2604C50.6458 0 55 4.38462 55 9.80769V44.1923C55 49.6154 50.6458 54 45.2604 54H9.73958C4.35417 54 0 49.6154 0 44.1923V9.80769C0 4.38462 4.35417 0 9.73958 0Z" fill="white" fill-opacity="0.7"/>
<path d="M28.9208 14.1923L22.0458 25.6154L29.3792 37.7308C29.425 37.8231 29.4479 37.9154 29.425 38.0077C29.4021 38.1 29.3104 38.0308 29.1729 38.0539H23.925C23.5583 38.0539 23.3062 38.0308 23.1458 37.8C22.6646 36.8308 22.1604 35.8847 21.6792 34.9154C21.1979 33.9693 20.6708 33 20.1208 32.0077C19.5708 31.0154 19.0208 30.0231 18.4708 29.0077H18.425C17.9437 30 17.4167 30.9923 16.8896 31.9847C16.3625 32.977 15.8354 33.9693 15.3312 34.9385C14.8042 35.9077 14.2771 36.9 13.75 37.8462C13.6583 38.077 13.475 38.1 13.2229 38.1H8.18125C8.08958 38.1 8.02083 38.1462 8.02083 38.0308C7.99791 37.9385 8.02083 37.8462 8.06666 37.777L15.1937 26.0077L8.25 14.1693C8.18125 14.077 8.15833 13.9847 8.20416 13.9385C8.25 13.8693 8.34166 13.8462 8.43333 13.8462H13.6354C13.75 13.8462 13.8646 13.8693 13.9562 13.8923C14.0479 13.9385 14.1167 14.0077 14.1854 14.1C14.6208 15.0923 15.125 16.0847 15.6521 17.077C16.2021 18.0693 16.7292 19.0385 17.3021 20.0077C17.8521 20.977 18.3562 21.9462 18.8375 22.9385H18.8833C19.3646 21.9231 19.8687 20.9308 20.3729 19.9616C20.8771 18.9923 21.4042 18.0231 21.9312 17.0539C22.4583 16.0847 22.9625 15.0923 23.4667 14.1462C23.4896 14.0539 23.5354 13.9616 23.6042 13.9154C23.6958 13.8693 23.7875 13.8462 23.9021 13.8693H28.7375C28.8521 13.8462 28.9667 13.9154 28.9896 14.0308C29.0125 14.0539 28.9667 14.1462 28.9208 14.1923Z" fill="black" fill-opacity="0.4"/>
<path d="M39.5083 38.5385C37.8125 38.5616 36.1167 38.2155 34.5812 37.5001C33.1375 36.8309 31.9458 35.7232 31.1208 34.3616C30.2729 32.9539 29.8604 31.2001 29.8604 29.1001C29.8375 27.3924 30.2729 25.7078 31.1208 24.2309C31.9917 22.7309 33.2521 21.4847 34.7646 20.6539C36.3688 19.7539 38.2938 19.3155 40.5625 19.3155C40.6771 19.3155 40.8375 19.3155 41.0438 19.3385C41.25 19.3616 41.4792 19.3616 41.7542 19.3847V12.0924C41.7542 11.9309 41.8229 11.8385 41.9833 11.8385H46.6354C46.75 11.8155 46.8417 11.9078 46.8646 12.0001C46.8646 12.0232 46.8646 12.0462 46.8646 12.0462V34.0155C46.8646 34.4309 46.8875 34.8924 46.9104 35.4001C46.9563 35.8847 46.9792 36.3462 47.0021 36.7385C47.0021 36.9001 46.9333 37.0385 46.7729 37.1078C45.5813 37.6155 44.3208 37.9847 43.0375 38.2155C41.8688 38.4232 40.7 38.5385 39.5083 38.5385ZM41.7542 33.9232V23.7693C41.5479 23.7232 41.3417 23.677 41.1354 23.6539C40.8833 23.6309 40.6313 23.6078 40.3792 23.6078C39.4854 23.6078 38.5917 23.7924 37.7896 24.2078C37.0104 24.6001 36.3458 25.177 35.8417 25.9155C35.3375 26.6539 35.0854 27.6462 35.0854 28.8462C35.0625 29.6539 35.2 30.4616 35.475 31.2232C35.7042 31.8462 36.0479 32.4001 36.5063 32.8616C36.9417 33.277 37.4688 33.6001 38.0646 33.7847C38.6833 33.9924 39.325 34.0847 39.9667 34.0847C40.3104 34.0847 40.6313 34.0616 40.9292 34.0385C41.2271 34.0616 41.4792 34.0155 41.7542 33.9232Z" fill="black" fill-opacity="0.4"/>
</svg>
