<svg width="23" height="23" viewBox="0 0 23 23" fill="none" xmlns="http://www.w3.org/2000/svg">
<path d="M16.5192 0.631244C16.697 0.311856 16.9116 0 17.4066 0L20.7549 3.0131e-05C20.9545 3.0131e-05 21.1112 0.0753576 21.1953 0.211695C21.2829 0.353311 21.2806 0.540123 21.1888 0.723169L13.8504 13.6983C13.8462 13.7051 13.8462 13.7134 13.8504 13.7201L18.5232 22.257C18.6155 22.4408 18.6178 22.6276 18.5297 22.7692C18.4453 22.9056 18.2894 22.9809 18.0898 22.9809H14.7791C14.2714 22.9809 14.0176 22.6434 13.8534 22.3497C13.8534 22.3497 9.15579 13.7322 9.14388 13.7096C9.3789 13.2938 16.5192 0.631244 16.5192 0.631244Z" fill="#BABABA"/>
<path d="M3.03883 4.7538C3.12324 4.6167 3.28414 4.54304 3.48377 4.54304H6.78567C7.29414 4.54304 7.55741 4.85812 7.72239 5.1519C7.72239 5.1519 9.98038 9.1111 9.99391 9.13292C9.85983 9.36945 6.41099 15.4557 6.41099 15.4557C6.2415 15.7616 6.01679 16.1114 5.52111 16.1114H2.19579C1.99616 16.1114 1.85862 16.0136 1.77427 15.8772C1.68688 15.7356 1.68239 15.5451 1.77427 15.3621L5.28694 9.15634C5.29053 9.14957 5.29053 9.14045 5.28694 9.13292L3.03883 5.24557C2.94608 5.06102 2.95144 4.89541 3.03883 4.7538Z" fill="#BABABA"/>
</svg>
